<?xml version="1.0" encoding="utf-8"?>
<!-- Generator: Adobe Illustrator 16.0.0, SVG Export Plug-In . SVG Version: 6.00 Build 0)  -->
<!DOCTYPE svg PUBLIC "-//W3C//DTD SVG 1.1//EN" "http://www.w3.org/Graphics/SVG/1.1/DTD/svg11.dtd">
<svg version="1.1" id="Layer_1" xmlns="http://www.w3.org/2000/svg" xmlns:xlink="http://www.w3.org/1999/xlink" x="0px" y="0px"
	 width="181px" height="166.104px" viewBox="0 0 181 166.104" enable-background="new 0 0 181 166.104" xml:space="preserve">
<g>
	<path fill="#ffffff" d="M92.54,10.159c-40.96,0-74.282,33.322-74.282,74.281c0,8.625,1.495,16.905,4.21,24.614h42.492V84.026
		l11.637-11.637L87.73,83.523v25.66h12.281v-24.69l12.104-12.104l10.208,10.208v26.586h12.281v-31.59h-0.083l0.083-0.084
		L120.8,63.705l0.036-0.034l-8.686-8.685l-0.034,0.035l-0.034-0.035l-8.685,8.683l0.036,0.036l-9.077,9.076l-9.076-9.076
		l0.036-0.034l-8.686-8.685l-0.033,0.035l-0.035-0.035l-8.686,8.683l0.036,0.036l-2.953,2.952V55.618H52.677v41.023H31.728
		c-0.79-3.946-1.221-8.023-1.221-12.201c0-34.203,27.829-62.032,62.033-62.032c34.204,0,62.029,27.829,62.029,62.032
		c0,8.757-1.833,17.091-5.121,24.653c-1.562,3.591-3.448,7.006-5.631,10.208c-11.178,16.387-29.989,27.17-51.277,27.17
		c-20.262,0-38.276-9.771-49.604-24.841H28.274c12.867,22.155,36.848,37.09,64.266,37.09c28.365,0,53.057-15.987,65.565-39.419
		c1.743-3.266,3.245-6.675,4.49-10.208c2.726-7.719,4.223-16.012,4.223-24.653C166.818,43.481,133.496,10.159,92.54,10.159z"/>
</g>
</svg>
